<svg xmlns="http://www.w3.org/2000/svg" xmlns:xlink="http://www.w3.org/1999/xlink" width="360" height="359" viewBox="0 0 360 359">
  <defs>
    <clipPath id="clip-logo">
      <rect width="360" height="359"/>
    </clipPath>
  </defs>
  <g id="logo" clip-path="url(#clip-logo)">
    <rect width="360" height="359" fill="rgba(255,255,255,0)"/>
    <g id="Component_1_8" data-name="Component 1 – 8" transform="translate(0)">
      <g id="Path_25" data-name="Path 25" transform="translate(6.558 5.589)" fill="#fff">
        <path d="M 174.5 346 C 162.8619995117188 346 151.232177734375 344.8277282714844 139.93359375 342.5156860351562 C 128.9236755371094 340.2627258300781 118.0940017700195 336.9010009765625 107.745361328125 332.5238952636719 C 97.58395385742188 328.2260131835938 87.78299713134766 322.9061889648438 78.61481475830078 316.7122802734375 C 69.53295135498047 310.5766906738281 60.99268341064453 303.5302734375 53.23118209838867 295.7688293457031 C 45.4697265625 288.00732421875 38.42331695556641 279.467041015625 32.28772735595703 270.3851928710938 C 26.09381866455078 261.2170104980469 20.77400016784668 251.4160461425781 16.4760913848877 241.254638671875 C 12.09899997711182 230.906005859375 8.737272262573242 220.0763244628906 6.484318256378174 209.06640625 C 4.172272682189941 197.767822265625 3 186.1380004882812 3 174.5 C 3 162.8619995117188 4.172272682189941 151.232177734375 6.484318256378174 139.93359375 C 8.737272262573242 128.9236755371094 12.09899997711182 118.0940017700195 16.4760913848877 107.745361328125 C 20.77400016784668 97.58395385742188 26.09381866455078 87.78299713134766 32.28772735595703 78.61481475830078 C 38.42331695556641 69.53295135498047 45.4697265625 60.99268341064453 53.23118209838867 53.23118209838867 C 60.99268341064453 45.4697265625 69.53295135498047 38.42331695556641 78.61481475830078 32.28772735595703 C 87.78299713134766 26.09381866455078 97.58395385742188 20.77400016784668 107.745361328125 16.4760913848877 C 118.0940017700195 12.09899997711182 128.9236755371094 8.737272262573242 139.93359375 6.484318256378174 C 151.232177734375 4.172272682189941 162.8619995117188 3 174.5 3 C 186.1380004882812 3 197.767822265625 4.172272682189941 209.06640625 6.484318256378174 C 220.0763244628906 8.737272262573242 230.906005859375 12.09899997711182 241.254638671875 16.4760913848877 C 251.4160461425781 20.77400016784668 261.2170104980469 26.09381866455078 270.3851928710938 32.28772735595703 C 279.467041015625 38.42331695556641 288.00732421875 45.4697265625 295.7688293457031 53.23118209838867 C 303.5302734375 60.99268341064453 310.5766906738281 69.53295135498047 316.7122802734375 78.61481475830078 C 322.9061889648438 87.78299713134766 328.2260131835938 97.58395385742188 332.5238952636719 107.745361328125 C 336.9010009765625 118.0940017700195 340.2627258300781 128.9236755371094 342.5156860351562 139.93359375 C 344.8277282714844 151.232177734375 346 162.8619995117188 346 174.5 C 346 186.1380004882812 344.8277282714844 197.767822265625 342.5156860351562 209.06640625 C 340.2627258300781 220.0763244628906 336.9010009765625 230.906005859375 332.5238952636719 241.254638671875 C 328.2260131835938 251.4160461425781 322.9061889648438 261.2170104980469 316.7122802734375 270.3851928710938 C 310.5766906738281 279.467041015625 303.5302734375 288.00732421875 295.7688293457031 295.7688293457031 C 288.00732421875 303.5302734375 279.467041015625 310.5766906738281 270.3851928710938 316.7122802734375 C 261.2170104980469 322.9061889648438 251.4160461425781 328.2260131835938 241.254638671875 332.5238952636719 C 230.906005859375 336.9010009765625 220.0763244628906 340.2627258300781 209.06640625 342.5156860351562 C 197.767822265625 344.8277282714844 186.1380004882812 346 174.5 346 Z" stroke="none"/>
        <path d="M 174.5 6 C 81.58880615234375 6 6 81.58880615234375 6 174.5 C 6 267.4111938476562 81.58880615234375 343 174.5 343 C 267.4111938476562 343 343 267.4111938476562 343 174.5 C 343 81.58880615234375 267.4111938476562 6 174.5 6 M 174.5 0 C 270.8737182617188 0 349 78.12631225585938 349 174.5 C 349 270.8737182617188 270.8737182617188 349 174.5 349 C 78.12631225585938 349 0 270.8737182617188 0 174.5 C 0 78.12631225585938 78.12631225585938 0 174.5 0 Z" stroke="none" fill="#88b09f"/>
      </g>
      <path id="Path_26" data-name="Path 26" d="M349,174.5a174.5,174.5,0,0,1-349,0c0-21.157,199.994-24.045,297.164-13.784C328.392,164.014,349,168.664,349,174.5Z" transform="translate(360.967 348.787) rotate(178)" fill="#88b09f"/>
      <g id="Path_36" data-name="Path 36" transform="translate(73.558 71.589)" fill="#88b09f">
        <path d="M 108.5 214 C 101.3399963378906 214 94.18537902832031 213.2788543701172 87.23487854003906 211.8565521240234 C 80.46258544921875 210.4707641601562 73.80111694335938 208.4029083251953 67.43556213378906 205.7105255126953 C 61.18491363525391 203.0667114257812 55.15591049194336 199.7942657470703 49.51605987548828 195.9840240478516 C 43.92900085449219 192.2095031738281 38.67508697509766 187.8746185302734 33.90023422241211 183.0997619628906 C 29.12541198730469 178.3249359130859 24.79050064086914 173.0710296630859 21.01597023010254 167.4839630126953 C 17.20576477050781 161.8441162109375 13.93329429626465 155.8151245117188 11.28947067260742 149.5644378662109 C 8.597087860107422 143.1988830566406 6.529235363006592 136.5374450683594 5.143441200256348 129.7651214599609 C 3.721147060394287 122.8146209716797 3 115.6600036621094 3 108.5 C 3 101.3399963378906 3.721147060394287 94.18537902832031 5.143441200256348 87.23487854003906 C 6.529235363006592 80.46258544921875 8.597087860107422 73.80111694335938 11.28947067260742 67.43556213378906 C 13.93329429626465 61.18491363525391 17.20576477050781 55.15591049194336 21.01597023010254 49.51605987548828 C 24.79050064086914 43.92900085449219 29.12541198730469 38.67508697509766 33.90023422241211 33.90023422241211 C 38.67508697509766 29.12541198730469 43.92900085449219 24.79050064086914 49.51605987548828 21.01597023010254 C 55.15591049194336 17.20576477050781 61.18491363525391 13.93329429626465 67.43556213378906 11.28947067260742 C 73.80111694335938 8.597087860107422 80.46258544921875 6.529235363006592 87.23487854003906 5.143441200256348 C 94.18537902832031 3.721147060394287 101.3399963378906 3 108.5 3 C 115.6600036621094 3 122.8146209716797 3.721147060394287 129.7651214599609 5.143441200256348 C 136.5374450683594 6.529235363006592 143.1988830566406 8.597087860107422 149.5644378662109 11.28947067260742 C 155.8151245117188 13.93329429626465 161.8441162109375 17.20576477050781 167.4839630126953 21.01597023010254 C 173.0710296630859 24.79050064086914 178.3249359130859 29.12541198730469 183.0997619628906 33.90023422241211 C 187.8746185302734 38.67508697509766 192.2095031738281 43.92900085449219 195.9840240478516 49.51605987548828 C 199.7942657470703 55.15591049194336 203.0667114257812 61.18491363525391 205.7105255126953 67.43556213378906 C 208.4029083251953 73.80111694335938 210.4707641601562 80.46258544921875 211.8565521240234 87.23487854003906 C 213.2788543701172 94.18537902832031 214 101.3399963378906 214 108.5 C 214 115.6600036621094 213.2788543701172 122.8146209716797 211.8565521240234 129.7651214599609 C 210.4707641601562 136.5374450683594 208.4029083251953 143.1988830566406 205.7105255126953 149.5644378662109 C 203.0667114257812 155.8151245117188 199.7942657470703 161.8441162109375 195.9840240478516 167.4839630126953 C 192.2095031738281 173.0710296630859 187.8746185302734 178.3249359130859 183.0997619628906 183.0997619628906 C 178.3249359130859 187.8746185302734 173.0710296630859 192.2095031738281 167.4839630126953 195.9840240478516 C 161.8441162109375 199.7942657470703 155.8151245117188 203.0667114257812 149.5644378662109 205.7105255126953 C 143.1988830566406 208.4029083251953 136.5374450683594 210.4707641601562 129.7651214599609 211.8565521240234 C 122.8146209716797 213.2788543701172 115.6600036621094 214 108.5 214 Z" stroke="none"/>
        <path d="M 108.5 6 C 51.98129272460938 6 6 51.98129272460938 6 108.5 C 6 165.0187072753906 51.98129272460938 211 108.5 211 C 165.0187072753906 211 211 165.0187072753906 211 108.5 C 211 51.98129272460938 165.0187072753906 6 108.5 6 M 108.5 0 C 168.4228973388672 0 217 48.57710266113281 217 108.5 C 217 168.4228973388672 168.4228973388672 217 108.5 217 C 48.57710266113281 217 0 168.4228973388672 0 108.5 C 0 48.57710266113281 48.57710266113281 0 108.5 0 Z" stroke="none" fill="#fff"/>
      </g>
      <g id="Path_37" data-name="Path 37" transform="translate(88.558 86.589)" fill="#88b09f">
        <path d="M 93.5 184 C 87.35773468017578 184 81.22020721435547 183.3813629150391 75.25791931152344 182.1613159179688 C 69.44868469238281 180.9725799560547 63.73455429077148 179.1988220214844 58.27423858642578 176.8892822265625 C 52.91239547729492 174.6214141845703 47.74063110351562 171.8142700195312 42.90268325805664 168.5457916259766 C 38.10989379882812 165.307861328125 33.6028938293457 161.5892181396484 29.5068416595459 157.4931640625 C 25.41078948974609 153.3971099853516 21.69213104248047 148.8901062011719 18.45421028137207 144.0973205566406 C 15.18573665618896 139.2593688964844 12.37857913970947 134.0876007080078 10.11071014404297 128.7257690429688 C 7.801184177398682 123.2654495239258 6.027420997619629 117.5513153076172 4.83868408203125 111.7420806884766 C 3.618631601333618 105.7797927856445 3 99.64226531982422 3 93.5 C 3 87.35773468017578 3.618631601333618 81.22020721435547 4.83868408203125 75.25791931152344 C 6.027420997619629 69.44868469238281 7.801184177398682 63.73455429077148 10.11071014404297 58.27423858642578 C 12.37857913970947 52.91239547729492 15.18573665618896 47.74063110351562 18.45421028137207 42.90268325805664 C 21.69213104248047 38.10989379882812 25.41078948974609 33.6028938293457 29.5068416595459 29.5068416595459 C 33.6028938293457 25.41078948974609 38.10989379882812 21.69213104248047 42.90268325805664 18.45421028137207 C 47.74063110351562 15.18573665618896 52.91239547729492 12.37857913970947 58.27423858642578 10.11071014404297 C 63.73455429077148 7.801184177398682 69.44868469238281 6.027420997619629 75.25791931152344 4.83868408203125 C 81.22020721435547 3.618631601333618 87.35773468017578 3 93.5 3 C 99.64226531982422 3 105.7797927856445 3.618631601333618 111.7420806884766 4.83868408203125 C 117.5513153076172 6.027420997619629 123.2654495239258 7.801184177398682 128.7257690429688 10.11071014404297 C 134.0876007080078 12.37857913970947 139.2593688964844 15.18573665618896 144.0973205566406 18.45421028137207 C 148.8901062011719 21.69213104248047 153.3971099853516 25.41078948974609 157.4931640625 29.5068416595459 C 161.5892181396484 33.6028938293457 165.307861328125 38.10989379882812 168.5457916259766 42.90268325805664 C 171.8142700195312 47.74063110351562 174.6214141845703 52.91239547729492 176.8892822265625 58.27423858642578 C 179.1988220214844 63.73455429077148 180.9725799560547 69.44868469238281 182.1613159179688 75.25791931152344 C 183.3813629150391 81.22020721435547 184 87.35773468017578 184 93.5 C 184 99.64226531982422 183.3813629150391 105.7797927856445 182.1613159179688 111.7420806884766 C 180.9725799560547 117.5513153076172 179.1988220214844 123.2654495239258 176.8892822265625 128.7257690429688 C 174.6214141845703 134.0876007080078 171.8142700195312 139.2593688964844 168.5457916259766 144.0973205566406 C 165.307861328125 148.8901062011719 161.5892181396484 153.3971099853516 157.4931640625 157.4931640625 C 153.3971099853516 161.5892181396484 148.8901062011719 165.307861328125 144.0973205566406 168.5457916259766 C 139.2593688964844 171.8142700195312 134.0876007080078 174.6214141845703 128.7257690429688 176.8892822265625 C 123.2654495239258 179.1988220214844 117.5513153076172 180.9725799560547 111.7420806884766 182.1613159179688 C 105.7797927856445 183.3813629150391 99.64226531982422 184 93.5 184 Z" stroke="none"/>
        <path d="M 93.5 6 C 45.2523193359375 6 6 45.2523193359375 6 93.5 C 6 141.7476806640625 45.2523193359375 181 93.5 181 C 141.7476806640625 181 181 141.7476806640625 181 93.5 C 181 45.2523193359375 141.7476806640625 6 93.5 6 M 93.5 0 C 145.1386108398438 0 187 41.86138916015625 187 93.5 C 187 145.1386108398438 145.1386108398438 187 93.5 187 C 41.86138916015625 187 0 145.1386108398438 0 93.5 C 0 41.86138916015625 41.86138916015625 0 93.5 0 Z" stroke="none" fill="#fff"/>
      </g>
      <g id="Group_3" data-name="Group 3" transform="translate(-2031.353 679.469)">
        <text id="à" transform="translate(2090.727 -404.092) rotate(42)" fill="#88b09f" font-size="42" font-family="ArialMT, Arial"><tspan x="0" y="0">À</tspan></text>
        <text id="B" transform="matrix(0.891, 0.454, -0.454, 0.891, 2129.293, -372.953)" fill="#88b09f" font-size="42" font-family="ArialMT, Arial"><tspan x="0" y="0">B</tspan></text>
        <text id="O" transform="matrix(0.996, 0.087, -0.087, 0.996, 2175.349, -352.277)" fill="#88b09f" font-size="42" font-family="ArialMT, Arial"><tspan x="0" y="0">O</tspan></text>
        <text id="R" transform="translate(2230.254 -349.188) rotate(-11)" fill="#88b09f" font-size="42" font-family="ArialMT, Arial"><tspan x="0" y="0">R</tspan></text>
        <text id="L" transform="translate(2280.89 -363.515) rotate(-25)" fill="#88b09f" font-size="42" font-family="ArialMT, Arial"><tspan x="0" y="0">L</tspan></text>
        <text id="A" transform="translate(2316.502 -386.099) rotate(-43)" fill="#88b09f" font-size="42" font-family="ArialMT, Arial"><tspan x="0" y="0">A</tspan></text>
      </g>
      <path id="Path_27" data-name="Path 27" d="M40.951,46.27c44.077-1.363,40.951-22.617,40.951,0a40.951,40.951,0,0,1-81.9,0C0,23.653-3.126,47.633,40.951,46.27Z" transform="translate(181.771 209.141) rotate(-162)" fill="#fff"/>
      <path id="Path_28" data-name="Path 28" d="M40.951,46.27c44.077-1.363,40.951-22.617,40.951,0a40.951,40.951,0,0,1-81.9,0C0,23.653-3.126,47.633,40.951,46.27Z" transform="matrix(0.191, -0.982, 0.982, 0.191, 153.488, 189.387)" fill="#fff"/>
      <path id="Path_29" data-name="Path 29" d="M40.951,46.27c44.077-1.363,40.951-22.617,40.951,0a40.951,40.951,0,0,1-81.9,0C0,23.653-3.126,47.633,40.951,46.27Z" transform="translate(167.899 159.845) rotate(1)" fill="#fff"/>
      <path id="Path_30" data-name="Path 30" d="M40.951,46.27c44.077-1.363,40.951-22.617,40.951,0a40.951,40.951,0,0,1-81.9,0C0,23.653-3.126,47.633,40.951,46.27Z" transform="translate(214.058 181.687) rotate(109)" fill="#fff"/>
      <path id="Path_31" data-name="Path 31" d="M1965.386-644.882s40.267,8.442,63.53,9.517" transform="translate(-1951.442 793.369)" fill="none" stroke="#fff" stroke-width="8"/>
      <path id="Path_32" data-name="Path 32" d="M1965.386-644.882s40.267,8.442,63.53,9.517" transform="translate(-2031.517 172.872) rotate(16)" fill="none" stroke="#fff" stroke-width="8"/>
      <path id="Path_33" data-name="Path 33" d="M1965.386-644.882s40.267,8.442,63.53,9.517" transform="translate(-1723.501 -959.832) rotate(47)" fill="none" stroke="#fff" stroke-width="8"/>
      <path id="Path_34" data-name="Path 34" d="M1965.386-644.882s40.267,8.442,63.53,9.517" transform="matrix(0.259, 0.966, -0.966, 0.259, -965.472, -1720.311)" fill="none" stroke="#fff" stroke-width="8"/>
    </g>
  </g>
</svg>
